<svg width="60" height="60" viewBox="0 0 60 60" fill="none" xmlns="http://www.w3.org/2000/svg">
<rect width="60" height="60" rx="8" fill="#6366F1" fill-opacity="0.08"/>
<g clip-path="url(#clip0_20005128_11015)">
<path d="M33.7031 36.071C34.1778 36.071 34.5625 36.6941 34.5625 37.463V39.1335C34.5625 39.9023 34.1778 40.5255 33.7031 40.5255H31.7266C31.2519 40.5255 30.8672 39.9023 30.8672 39.1335V37.463C30.8672 36.6941 31.2519 36.071 31.7266 36.071H33.7031ZM36.2812 33.5653V29.3891H17.7188V40.5171C17.7188 42.0521 18.4898 43.3012 19.4375 43.3012H34.5625C35.5102 43.3012 36.2812 42.0521 36.2812 40.5171C36.2812 39.7482 36.666 39.125 37.1406 39.125C37.6153 39.125 38 39.7482 38 40.5171C38 43.5875 36.458 46.0852 34.5625 46.0852H19.4375C17.542 46.0852 16 43.5875 16 40.5171V25.483C16 22.4126 17.542 19.9148 19.4375 19.9148H34.5625C36.458 19.9148 38 22.4126 38 25.483V33.5653C38 34.3342 37.6153 34.9573 37.1406 34.9573C36.666 34.9573 36.2812 34.3342 36.2812 33.5653ZM36.2812 26.605V25.483C36.2812 23.9479 35.5102 22.6989 34.5625 22.6989H19.4375C18.4898 22.6989 17.7188 23.9479 17.7188 25.483V26.605H36.2812ZM20.2969 32.1732C19.8222 32.1732 19.4375 32.7964 19.4375 33.5653C19.4375 34.3342 19.8222 34.9573 20.2969 34.9573H27.3867C27.8614 34.9573 28.2461 34.3342 28.2461 33.5653C28.2461 32.7964 27.8614 32.1732 27.3867 32.1732H20.2969Z" fill="url(#paint0_linear_20005128_11015)"/>
</g>
<defs>
<linearGradient id="paint0_linear_20005128_11015" x1="16" y1="33.0626" x2="38" y2="33.0626" gradientUnits="userSpaceOnUse">
<stop stop-color="#6366F1"/>
<stop offset="0.5" stop-color="#8B5CF6"/>
<stop offset="1" stop-color="#D946EF"/>
</linearGradient>
<clipPath id="clip0_20005128_11015">
<rect width="22" height="28" fill="white" transform="translate(16 19)"/>
</clipPath>
</defs>
</svg>
